<svg width="56" height="56" viewBox="0 0 56 56" fill="none" xmlns="http://www.w3.org/2000/svg">
<g clip-path="url(#clip0_9863_17259)">
<path d="M5.297 0V20.3214C5.297 29.9843 8.09629 38.2286 13.6181 44.8247C18.208 50.3087 23.6772 53.4878 26.945 55.3872L28 56.0004L29.0554 55.3872C32.3232 53.4878 37.7923 50.3087 42.3823 44.8247C47.9037 38.2286 50.703 29.9847 50.703 20.3214V0H5.297ZM48.6275 20.3218C48.6275 40.8721 35.6129 49.1594 28.0245 53.5702C20.436 49.1594 7.42151 40.8721 7.42151 20.3218V2.10003H48.6275V20.3218Z" fill="#FDFEFE"/>
<path d="M33.1445 12.9343V19.8446H22.8558V12.9343C22.8558 11.9531 23.4865 10.5661 24.891 9.62492V7.44922H16.6389V11.886H18.3894V32.6952H16.6389V37.1226H24.891V34.9477C23.4861 34.0051 22.8558 32.6184 22.8558 31.6379L22.857 24.2721H33.1445V31.6379C33.1445 32.6188 32.5139 34.0054 31.1091 34.9473V37.1226H39.3611V32.6952H37.6109V11.886H39.3611V7.44922H31.1091V9.62492C32.5135 10.5653 33.1445 11.9527 33.1445 12.9343Z" fill="#FDFEFE"/>
<path d="M7.42151 2.09961V20.3214C7.42151 40.8717 20.436 49.159 28.0245 53.5698C35.6129 49.159 48.6275 40.8717 48.6275 20.3214V2.09961H7.42151ZM31.109 7.44854H39.3611V11.8853H37.6109V32.6945H39.3611V37.122H31.109V34.9466C32.5139 34.0047 33.1445 32.6181 33.1445 31.6373V24.2714H22.857L22.8558 31.6373C22.8558 32.6177 23.4861 34.0047 24.8909 34.947V37.122H16.6389V32.6945H18.3894V11.8853H16.6389V7.44854H24.8909V9.62425C23.4865 10.5658 22.8558 11.9528 22.8558 12.9336V19.8439H33.1445V12.9336C33.1445 11.952 32.5135 10.5643 31.109 9.62425V7.44854Z" fill="#A32035"/>
</g>
<defs>
<clipPath id="clip0_9863_17259">
<rect width="45.406" height="56" fill="white" transform="translate(5.297)"/>
</clipPath>
</defs>
</svg>
